<svg width="512" height="512" viewBox="0 0 512 512" fill="none" xmlns="http://www.w3.org/2000/svg">
<path d="M437.019 74.981C388.668 26.628 324.38 0 256 0C187.62 0 123.332 26.628 74.981 74.981C26.628 123.332 0 187.62 0 256C0 324.38 26.628 388.668 74.981 437.019C123.332 485.372 187.62 512 256 512C324.38 512 388.668 485.372 437.019 437.019C485.372 388.668 512 324.38 512 256C512 187.62 485.372 123.332 437.019 74.981ZM355.203 37.854C407.74 61.841 450.159 104.26 474.146 156.797L459.037 163.055C436.723 114.503 397.497 75.277 348.945 52.963L355.203 37.854ZM462.979 256C462.979 342.06 410.178 416.01 335.275 447.184C335.251 447.194 335.227 447.2 335.203 447.21C335.182 447.219 335.164 447.23 335.144 447.238C310.748 457.371 284.018 462.978 256 462.978C141.872 462.978 49.021 370.127 49.021 255.999C49.021 169.918 101.849 95.952 176.782 64.791C201.215 54.635 227.962 49.02 255.999 49.02C284.039 49.02 310.788 54.636 335.199 64.784C385.733 85.796 426.203 126.264 447.212 176.791C457.363 201.209 462.979 227.96 462.979 256ZM256 16.34C285.584 16.34 313.926 21.742 340.111 31.589L333.856 46.691C309.601 37.641 283.371 32.681 256 32.681C228.63 32.681 202.399 37.641 178.144 46.691L171.889 31.588C198.074 21.743 226.416 16.34 256 16.34ZM156.797 37.854L163.055 52.963C114.504 75.279 75.278 114.504 52.964 163.056L37.855 156.798C61.841 104.261 104.261 61.841 156.797 37.854ZM16.34 256C16.34 226.416 21.742 198.074 31.589 171.889L46.691 178.144C37.641 202.399 32.681 228.629 32.681 256C32.681 283.37 37.641 309.601 46.691 333.855L31.589 340.11C21.743 313.926 16.34 285.584 16.34 256ZM156.797 474.146C104.26 450.159 61.841 407.74 37.854 355.203L52.963 348.945C75.278 397.497 114.503 436.723 163.055 459.037L156.797 474.146ZM256 495.66C226.416 495.66 198.074 490.258 171.889 480.411L178.145 465.309C202.399 474.359 228.629 479.319 255.999 479.319C283.369 479.319 309.6 474.359 333.855 465.309L340.11 480.412C313.926 490.257 285.584 495.66 256 495.66ZM355.203 474.146L348.945 459.037C397.497 436.723 436.723 397.497 459.037 348.945L474.146 355.203C450.159 407.739 407.739 450.159 355.203 474.146ZM465.308 333.856C474.359 309.601 479.319 283.371 479.319 256C479.319 228.63 474.359 202.399 465.309 178.146L480.411 171.891C490.258 198.075 495.66 226.417 495.66 256.001C495.66 285.585 490.258 313.927 480.411 340.112L465.308 333.856Z" fill="#FA7A35"/>
<path d="M427.693 318.274L277.35 256L427.696 193.724C431.865 191.997 433.844 187.217 432.118 183.049C430.391 178.881 425.61 176.902 421.443 178.627L271.097 240.903L333.373 90.557C335.1 86.388 333.12 81.609 328.951 79.882C324.784 78.155 320.003 80.134 318.276 84.304L256 234.65L193.724 84.305C191.997 80.136 187.217 78.157 183.049 79.883C178.88 81.61 176.901 86.39 178.627 90.558L240.903 240.903L90.558 178.628C86.391 176.901 81.61 178.88 79.883 183.05C78.156 187.219 80.136 191.998 84.305 193.725L234.65 256L84.297 318.278C80.128 320.005 78.149 324.785 79.875 328.953C81.178 332.099 84.22 333.999 87.426 333.999C88.468 333.999 89.527 333.799 90.549 333.375L240.902 271.097L178.626 421.444C176.899 425.613 178.879 430.392 183.048 432.119C184.07 432.543 185.13 432.743 186.171 432.743C189.377 432.743 192.42 430.843 193.722 427.697L256 277.35L318.278 427.702C319.581 430.848 322.624 432.748 325.83 432.748C326.872 432.748 327.931 432.548 328.953 432.124C333.122 430.397 335.101 425.617 333.375 421.449L271.097 271.096L421.441 333.37C422.463 333.794 423.523 333.994 424.564 333.994C427.77 333.994 430.813 332.094 432.116 328.948C433.842 324.78 431.862 320.001 427.693 318.274Z" fill="#FA7A35"/>
<path d="M256 84.426C239.481 84.426 226.043 97.864 226.043 114.383C226.043 130.902 239.481 144.34 256 144.34C272.519 144.34 285.957 130.902 285.957 114.383C285.957 97.864 272.519 84.426 256 84.426ZM256 128C248.491 128 242.383 121.892 242.383 114.383C242.383 106.874 248.491 100.766 256 100.766C263.509 100.766 269.617 106.874 269.617 114.383C269.617 121.892 263.509 128 256 128Z" fill="#FA7A35"/>
<path d="M177.044 134.679C171.386 129.021 163.863 125.904 155.861 125.904C147.859 125.904 140.337 129.02 134.678 134.679C129.02 140.337 125.903 147.86 125.903 155.862C125.903 163.864 129.019 171.386 134.678 177.045C140.336 182.704 147.859 185.82 155.861 185.82C163.862 185.82 171.386 182.704 177.044 177.045C182.702 171.387 185.819 163.864 185.819 155.862C185.819 147.86 182.703 140.337 177.044 134.679ZM165.49 165.49C162.918 168.062 159.498 169.478 155.861 169.478C152.224 169.478 148.804 168.062 146.232 165.49C140.924 160.18 140.924 151.542 146.232 146.232C148.804 143.66 152.223 142.244 155.861 142.244C159.499 142.244 162.918 143.66 165.49 146.232C170.8 151.542 170.8 160.181 165.49 165.49Z" fill="#FA7A35"/>
<path d="M114.383 226.043C97.864 226.043 84.426 239.481 84.426 256C84.426 272.519 97.864 285.957 114.383 285.957C130.902 285.957 144.34 272.519 144.34 256C144.34 239.481 130.902 226.043 114.383 226.043ZM114.383 269.617C106.874 269.617 100.766 263.509 100.766 256C100.766 248.491 106.874 242.383 114.383 242.383C121.892 242.383 128 248.491 128 256C128 263.509 121.892 269.617 114.383 269.617Z" fill="#FA7A35"/>
<path d="M177.044 334.956C171.386 329.298 163.863 326.181 155.861 326.181C147.859 326.181 140.337 329.297 134.678 334.956C129.02 340.614 125.903 348.137 125.903 356.139C125.903 364.14 129.019 371.664 134.678 377.322C140.336 382.98 147.859 386.097 155.861 386.097C163.863 386.097 171.385 382.981 177.044 377.322C182.702 371.664 185.819 364.141 185.819 356.139C185.819 348.137 182.703 340.613 177.044 334.956ZM165.49 365.767C162.918 368.339 159.499 369.755 155.861 369.755C152.223 369.755 148.804 368.339 146.232 365.767C140.922 360.457 140.922 351.819 146.232 346.509C148.804 343.937 152.223 342.521 155.861 342.521C159.499 342.521 162.918 343.937 165.49 346.509C170.8 351.819 170.8 360.458 165.49 365.767Z" fill="#FA7A35"/>
<path d="M256 367.66C239.481 367.66 226.043 381.098 226.043 397.617C226.043 414.136 239.481 427.574 256 427.574C272.519 427.574 285.957 414.136 285.957 397.617C285.957 381.098 272.519 367.66 256 367.66ZM256 411.234C248.491 411.234 242.383 405.126 242.383 397.617C242.383 390.108 248.491 384 256 384C263.509 384 269.617 390.108 269.617 397.617C269.617 405.126 263.509 411.234 256 411.234Z" fill="#FA7A35"/>
<path d="M377.321 334.956C371.663 329.297 364.14 326.181 356.138 326.181C348.137 326.181 340.614 329.297 334.955 334.956C329.297 340.614 326.18 348.137 326.18 356.139C326.18 364.14 329.296 371.664 334.955 377.322C340.613 382.98 348.136 386.097 356.138 386.097C364.139 386.097 371.663 382.981 377.321 377.322C382.979 371.664 386.096 364.141 386.096 356.139C386.096 348.137 382.98 340.614 377.321 334.956ZM365.767 365.767C363.195 368.339 359.776 369.755 356.138 369.755C352.501 369.755 349.081 368.339 346.509 365.767C341.199 360.457 341.199 351.819 346.509 346.509C349.081 343.937 352.501 342.521 356.138 342.521C359.775 342.521 363.195 343.937 365.767 346.509C371.076 351.819 371.076 360.458 365.767 365.767Z" fill="#FA7A35"/>
<path d="M397.617 226.043C381.098 226.043 367.66 239.481 367.66 256C367.66 272.519 381.098 285.957 397.617 285.957C414.136 285.957 427.574 272.519 427.574 256C427.574 239.481 414.136 226.043 397.617 226.043ZM397.617 269.617C390.108 269.617 384 263.509 384 256C384 248.491 390.108 242.383 397.617 242.383C405.126 242.383 411.234 248.491 411.234 256C411.234 263.509 405.126 269.617 397.617 269.617Z" fill="#FA7A35"/>
<path d="M377.321 134.679C371.663 129.021 364.14 125.904 356.138 125.904C348.137 125.904 340.614 129.02 334.955 134.679C329.297 140.337 326.18 147.86 326.18 155.862C326.18 163.864 329.296 171.388 334.955 177.045C340.613 182.703 348.136 185.82 356.138 185.82C364.139 185.82 371.663 182.704 377.321 177.045C382.979 171.387 386.096 163.864 386.096 155.862C386.096 147.86 382.98 140.337 377.321 134.679ZM365.767 165.49C363.195 168.062 359.775 169.478 356.138 169.478C352.501 169.478 349.081 168.062 346.509 165.49C341.199 160.18 341.199 151.542 346.509 146.232C349.081 143.66 352.501 142.244 356.138 142.244C359.775 142.244 363.195 143.66 365.767 146.232C371.077 151.542 371.077 160.181 365.767 165.49Z" fill="#FA7A35"/>
<path d="M294.52 84.033C299.032 84.033 302.69 80.3752 302.69 75.863C302.69 71.3508 299.032 67.693 294.52 67.693C290.008 67.693 286.35 71.3508 286.35 75.863C286.35 80.3752 290.008 84.033 294.52 84.033Z" fill="#FA7A35"/>
<path d="M256 177.021C260.512 177.021 264.17 173.363 264.17 168.851C264.17 164.339 260.512 160.681 256 160.681C251.488 160.681 247.83 164.339 247.83 168.851C247.83 173.363 251.488 177.021 256 177.021Z" fill="#FA7A35"/>
<path d="M155.866 109.568C160.378 109.568 164.036 105.91 164.036 101.398C164.036 96.8858 160.378 93.228 155.866 93.228C151.354 93.228 147.696 96.8858 147.696 101.398C147.696 105.91 151.354 109.568 155.866 109.568Z" fill="#FA7A35"/>
<path d="M101.398 164.036C105.91 164.036 109.568 160.378 109.568 155.866C109.568 151.354 105.91 147.696 101.398 147.696C96.8858 147.696 93.228 151.354 93.228 155.866C93.228 160.378 96.8858 164.036 101.398 164.036Z" fill="#FA7A35"/>
<path d="M75.863 225.661C80.3752 225.661 84.033 222.003 84.033 217.491C84.033 212.979 80.3752 209.321 75.863 209.321C71.3508 209.321 67.693 212.979 67.693 217.491C67.693 222.003 71.3508 225.661 75.863 225.661Z" fill="#FA7A35"/>
<path d="M168.851 264.17C173.363 264.17 177.021 260.512 177.021 256C177.021 251.488 173.363 247.83 168.851 247.83C164.339 247.83 160.681 251.488 160.681 256C160.681 260.512 164.339 264.17 168.851 264.17Z" fill="#FA7A35"/>
<path d="M101.398 364.304C105.91 364.304 109.568 360.646 109.568 356.134C109.568 351.622 105.91 347.964 101.398 347.964C96.8858 347.964 93.228 351.622 93.228 356.134C93.228 360.646 96.8858 364.304 101.398 364.304Z" fill="#FA7A35"/>
<path d="M155.866 418.772C160.378 418.772 164.036 415.114 164.036 410.602C164.036 406.09 160.378 402.432 155.866 402.432C151.354 402.432 147.696 406.09 147.696 410.602C147.696 415.114 151.354 418.772 155.866 418.772Z" fill="#FA7A35"/>
<path d="M217.491 444.307C222.003 444.307 225.661 440.649 225.661 436.137C225.661 431.625 222.003 427.967 217.491 427.967C212.979 427.967 209.321 431.625 209.321 436.137C209.321 440.649 212.979 444.307 217.491 444.307Z" fill="#FA7A35"/>
<path d="M256 351.319C260.512 351.319 264.17 347.661 264.17 343.149C264.17 338.637 260.512 334.979 256 334.979C251.488 334.979 247.83 338.637 247.83 343.149C247.83 347.661 251.488 351.319 256 351.319Z" fill="#FA7A35"/>
<path d="M356.134 418.772C360.646 418.772 364.304 415.114 364.304 410.602C364.304 406.09 360.646 402.432 356.134 402.432C351.622 402.432 347.964 406.09 347.964 410.602C347.964 415.114 351.622 418.772 356.134 418.772Z" fill="#FA7A35"/>
<path d="M410.602 364.304C415.114 364.304 418.772 360.646 418.772 356.134C418.772 351.622 415.114 347.964 410.602 347.964C406.09 347.964 402.432 351.622 402.432 356.134C402.432 360.646 406.09 364.304 410.602 364.304Z" fill="#FA7A35"/>
<path d="M436.137 302.69C440.649 302.69 444.307 299.032 444.307 294.52C444.307 290.008 440.649 286.35 436.137 286.35C431.625 286.35 427.967 290.008 427.967 294.52C427.967 299.032 431.625 302.69 436.137 302.69Z" fill="#FA7A35"/>
<path d="M343.149 264.17C347.661 264.17 351.319 260.512 351.319 256C351.319 251.488 347.661 247.83 343.149 247.83C338.637 247.83 334.979 251.488 334.979 256C334.979 260.512 338.637 264.17 343.149 264.17Z" fill="#FA7A35"/>
<path d="M410.602 164.036C415.114 164.036 418.772 160.378 418.772 155.866C418.772 151.354 415.114 147.696 410.602 147.696C406.09 147.696 402.432 151.354 402.432 155.866C402.432 160.378 406.09 164.036 410.602 164.036Z" fill="#FA7A35"/>
<path d="M356.134 109.568C360.646 109.568 364.304 105.91 364.304 101.398C364.304 96.8858 360.646 93.228 356.134 93.228C351.622 93.228 347.964 96.8858 347.964 101.398C347.964 105.91 351.622 109.568 356.134 109.568Z" fill="#FA7A35"/>
</svg>
